<?xml version="1.0" standalone="no"?>
<!DOCTYPE svg PUBLIC "-//W3C//DTD SVG 20010904//EN"
 "http://www.w3.org/TR/2001/REC-SVG-20010904/DTD/svg10.dtd">
<svg version="1.0" xmlns="http://www.w3.org/2000/svg"
 width="630.000000pt" height="1280.000000pt" viewBox="0 0 630.000000 1280.000000"
 preserveAspectRatio="xMidYMid meet">
<metadata>
Created by potrace 1.15, written by Peter Selinger 2001-2017
</metadata>
<g transform="translate(0.000000,1280.000000) scale(0.100000,-0.100000)"
fill="#000000" stroke="none">
<path d="M5136 9951 c-3 -4 -19 -62 -36 -130 -57 -225 -142 -456 -244 -659
-394 -785 -1074 -1340 -2196 -1791 -251 -101 -535 -199 -546 -188 -8 8 -11
112 -39 1162 -9 336 -20 759 -25 940 -6 182 -10 365 -10 408 0 73 -1 78 -24
87 -14 5 -26 19 -28 32 -2 13 -8 22 -13 22 -6 -1 -201 -23 -435 -49 -234 -27
-430 -53 -436 -59 -7 -7 -16 -117 -23 -306 -13 -327 -52 -1250 -76 -1775 -8
-187 -28 -657 -45 -1045 -16 -388 -34 -804 -40 -925 -6 -121 -17 -380 -25
-575 -8 -195 -29 -665 -45 -1045 -16 -379 -33 -765 -37 -857 l-6 -168 26 0
c20 0 27 -5 27 -20 0 -15 7 -20 28 -20 47 1 1323 237 1333 247 7 7 6 128 0
349 -6 186 -18 578 -26 869 -9 292 -22 757 -30 1035 -8 278 -17 602 -20 720
-3 118 -8 259 -11 314 -4 61 -3 96 3 93 5 -3 529 -859 1163 -1902 635 -1042
1159 -1895 1165 -1895 5 0 16 -9 23 -20 7 -11 17 -20 23 -20 6 0 192 130 413
288 220 159 479 344 574 412 94 68 172 128 172 135 0 6 -31 45 -68 86 -37 41
-194 214 -347 384 -154 171 -298 330 -321 355 -37 40 -171 189 -573 635 -69
77 -151 167 -182 200 -30 33 -179 197 -329 365 -151 168 -277 307 -280 310
-40 36 -650 723 -650 732 0 8 65 38 153 72 763 294 1298 589 1661 919 305 276
572 724 730 1227 73 229 160 631 173 796 5 67 4 72 -16 79 -11 3 -21 14 -21
24 0 14 -27 25 -122 54 -68 21 -171 53 -230 71 -60 19 -110 31 -112 27z"/>
<path d="M3765 6706 c-103 -48 -152 -146 -142 -283 7 -94 32 -146 106 -216 67
-64 127 -87 231 -87 134 0 230 53 267 148 27 70 24 222 -5 279 -35 67 -120
147 -176 166 -77 26 -218 23 -281 -7z"/>
<path d="M4401 6000 c-142 -30 -210 -137 -198 -311 6 -99 32 -153 101 -216 62
-57 133 -83 228 -83 183 0 278 95 278 279 0 107 -22 165 -92 237 -42 44 -74
68 -105 78 -59 20 -156 27 -212 16z"/>
<path d="M5011 5240 c-60 -14 -114 -60 -146 -124 -26 -52 -29 -70 -29 -145 0
-105 23 -164 92 -234 70 -73 110 -90 218 -95 140 -7 223 30 269 118 39 75 38
246 -2 323 -30 60 -116 134 -173 151 -56 17 -171 20 -229 6z"/>
<path d="M5668 4477 c-94 -27 -161 -98 -174 -184 -3 -24 -4 -81 -2 -127 5
-102 32 -154 114 -220 69 -57 114 -69 234 -64 146 6 213 51 246 166 22 74 15
202 -14 257 -27 53 -118 139 -167 160 -54 22 -178 28 -237 12z"/>
</g>
</svg>
